<svg id="svg" version="1.1" xmlns="http://www.w3.org/2000/svg" xmlns:xlink="http://www.w3.org/1999/xlink" width="400" height="400" viewBox="0, 0, 400,400"><g id="svgg"><path id="path0" d="M31.250 102.722 C 31.198 103.728,31.096 119.232,31.024 137.176 C 30.951 155.119,30.799 184.650,30.686 202.800 C 30.255 271.579,30.210 298.000,30.524 298.000 C 30.702 298.000,30.733 298.184,30.594 298.410 C 30.455 298.635,30.489 298.794,30.670 298.763 C 31.477 298.622,32.027 298.833,31.803 299.195 C 31.667 299.414,31.812 299.493,32.128 299.372 C 32.441 299.252,32.809 299.446,32.946 299.802 C 33.082 300.159,33.376 300.339,33.597 300.202 C 33.819 300.065,34.000 300.131,34.000 300.349 C 34.000 300.568,34.386 300.869,34.857 301.018 C 36.281 301.470,39.200 303.467,38.890 303.777 C 38.730 303.936,38.780 304.016,39.000 303.954 C 39.582 303.790,41.200 304.398,41.200 304.780 C 41.200 304.960,41.515 305.212,41.900 305.342 C 42.580 305.570,43.996 306.396,44.400 306.800 C 44.737 307.137,46.155 307.982,47.016 308.359 C 47.465 308.556,48.071 309.003,48.362 309.354 C 48.653 309.704,49.028 309.907,49.195 309.803 C 49.362 309.700,49.981 310.062,50.570 310.607 C 51.159 311.153,51.857 311.606,52.121 311.613 C 52.843 311.632,54.028 312.639,53.706 312.961 C 53.551 313.116,53.711 313.132,54.061 312.998 C 54.447 312.850,54.795 313.009,54.946 313.402 C 55.082 313.759,55.376 313.939,55.597 313.802 C 55.819 313.665,56.000 313.726,56.000 313.937 C 56.000 314.149,56.526 314.505,57.168 314.729 C 57.810 314.953,58.710 315.510,59.168 315.968 C 59.626 316.426,60.000 316.700,60.000 316.577 C 60.000 316.455,60.530 316.668,61.178 317.051 C 61.826 317.434,62.267 317.892,62.157 318.069 C 62.048 318.246,62.238 318.284,62.579 318.153 C 62.921 318.022,63.200 318.093,63.200 318.311 C 63.200 318.528,63.515 318.812,63.900 318.942 C 64.580 319.170,65.996 319.996,66.400 320.400 C 66.706 320.706,68.058 321.506,69.500 322.235 C 70.215 322.596,70.800 323.081,70.800 323.312 C 70.800 323.544,70.915 323.619,71.055 323.478 C 71.195 323.338,71.869 323.623,72.553 324.112 C 73.237 324.600,74.427 325.337,75.198 325.748 C 75.969 326.160,76.746 326.749,76.925 327.057 C 77.103 327.365,77.418 327.512,77.625 327.385 C 77.831 327.257,78.000 327.326,78.000 327.537 C 78.000 327.749,78.526 328.105,79.168 328.329 C 79.810 328.553,80.710 329.110,81.168 329.568 C 81.626 330.026,82.000 330.300,82.000 330.177 C 82.000 330.055,82.530 330.268,83.178 330.651 C 83.826 331.034,84.267 331.492,84.157 331.669 C 84.048 331.846,84.238 331.884,84.579 331.753 C 84.921 331.622,85.200 331.693,85.200 331.911 C 85.200 332.128,85.515 332.412,85.900 332.542 C 86.285 332.671,86.948 333.007,87.374 333.288 C 87.799 333.570,88.920 334.270,89.863 334.844 C 90.807 335.418,91.449 336.032,91.290 336.208 C 91.130 336.384,91.210 336.408,91.468 336.260 C 91.725 336.113,92.220 336.277,92.568 336.625 C 92.915 336.973,93.203 337.109,93.206 336.929 C 93.209 336.748,93.344 336.780,93.506 337.000 C 93.884 337.514,95.202 338.357,96.100 338.658 C 96.485 338.788,96.800 339.052,96.800 339.247 C 96.800 339.441,97.042 339.600,97.338 339.600 C 97.634 339.600,98.198 339.956,98.591 340.391 C 98.985 340.825,99.463 341.085,99.653 340.967 C 99.844 340.849,100.000 340.948,100.000 341.186 C 100.000 341.437,100.420 341.343,101.000 340.963 C 101.550 340.603,102.000 340.420,102.000 340.557 C 102.000 340.693,102.747 340.264,103.660 339.603 C 104.573 338.941,105.541 338.400,105.811 338.400 C 106.081 338.400,106.533 338.122,106.815 337.782 C 107.097 337.442,107.609 337.271,107.952 337.403 C 108.295 337.535,108.447 337.513,108.289 337.356 C 108.014 337.081,110.141 335.571,110.989 335.439 C 111.215 335.404,112.117 334.886,112.993 334.288 C 113.869 333.689,114.792 333.200,115.044 333.200 C 115.296 333.200,115.733 332.922,116.015 332.582 C 116.297 332.242,116.809 332.071,117.152 332.203 C 117.495 332.335,117.647 332.313,117.489 332.156 C 117.192 331.859,119.378 330.362,120.307 330.225 C 120.597 330.183,121.212 329.825,121.673 329.430 C 122.134 329.036,123.104 328.465,123.828 328.162 C 124.553 327.860,125.266 327.417,125.413 327.179 C 125.560 326.940,125.942 326.846,126.261 326.968 C 126.585 327.093,126.734 327.016,126.597 326.795 C 126.463 326.578,126.574 326.400,126.845 326.400 C 127.116 326.400,127.650 326.116,128.033 325.770 C 128.416 325.423,129.023 325.096,129.382 325.044 C 129.741 324.991,130.342 324.686,130.717 324.365 C 131.874 323.378,134.704 322.039,135.025 322.327 C 135.192 322.477,135.180 322.344,134.999 322.032 C 134.751 321.605,134.839 321.530,135.355 321.727 C 135.733 321.872,135.944 321.833,135.825 321.641 C 135.706 321.448,135.922 321.176,136.304 321.036 C 136.687 320.896,137.720 320.345,138.600 319.812 C 141.709 317.929,143.937 316.870,144.231 317.133 C 144.394 317.280,144.402 317.180,144.248 316.912 C 144.066 316.596,144.361 316.326,145.084 316.145 C 145.698 315.993,146.419 315.582,146.687 315.234 C 146.955 314.885,147.183 314.780,147.193 315.000 C 147.206 315.267,147.310 315.267,147.506 315.000 C 147.869 314.507,149.019 313.767,150.600 313.009 C 151.260 312.693,152.340 312.068,153.000 311.620 C 153.660 311.172,154.521 310.804,154.913 310.803 C 155.304 310.801,155.728 310.531,155.854 310.202 C 155.981 309.874,156.245 309.704,156.442 309.826 C 156.639 309.948,156.800 309.886,156.800 309.689 C 156.800 309.492,157.745 308.851,158.900 308.264 C 160.055 307.677,161.540 306.839,162.200 306.401 C 162.860 305.963,163.721 305.604,164.113 305.603 C 164.504 305.601,164.924 305.341,165.046 305.025 C 165.173 304.694,165.535 304.554,165.899 304.693 C 166.265 304.834,166.428 304.769,166.286 304.539 C 166.070 304.189,167.182 303.494,172.318 300.767 C 173.043 300.382,173.933 299.827,174.295 299.534 C 174.754 299.162,174.863 299.150,174.656 299.495 C 174.454 299.832,174.557 299.915,174.977 299.754 C 175.317 299.623,175.516 299.387,175.418 299.229 C 175.262 298.977,176.534 298.213,181.518 295.567 C 182.243 295.182,183.090 294.657,183.401 294.399 C 183.711 294.142,184.198 294.065,184.482 294.230 C 184.767 294.394,184.866 294.380,184.701 294.199 C 184.406 293.873,186.521 292.370,187.470 292.231 C 187.741 292.191,188.292 291.860,188.695 291.495 C 189.099 291.129,190.085 290.556,190.887 290.221 C 191.689 289.886,192.466 289.417,192.613 289.179 C 192.760 288.940,193.142 288.846,193.461 288.968 C 193.785 289.093,193.934 289.016,193.797 288.795 C 193.663 288.578,193.774 288.400,194.045 288.400 C 194.316 288.400,194.850 288.116,195.233 287.770 C 195.616 287.423,196.200 287.100,196.531 287.051 C 198.196 286.807,200.048 284.400,198.571 284.400 C 197.738 284.400,194.400 282.430,194.400 281.938 C 194.400 281.726,194.257 281.641,194.082 281.750 C 193.640 282.022,189.926 279.807,190.262 279.472 C 190.411 279.322,190.215 279.200,189.826 279.200 C 189.004 279.200,185.201 277.144,185.200 276.700 C 185.200 276.535,184.930 276.400,184.600 276.400 C 184.270 276.400,184.000 276.220,184.000 276.000 C 184.000 275.780,183.865 275.636,183.700 275.681 C 183.237 275.806,180.210 274.135,179.628 273.434 C 179.343 273.090,178.970 272.895,178.800 273.000 C 178.630 273.105,178.268 272.923,177.996 272.596 C 177.724 272.268,177.243 272.000,176.927 272.000 C 176.611 272.000,176.463 271.822,176.597 271.605 C 176.732 271.387,176.596 271.303,176.296 271.419 C 175.995 271.534,175.422 271.266,175.021 270.824 C 174.621 270.381,174.158 270.103,173.992 270.205 C 173.826 270.307,173.468 270.123,173.196 269.796 C 172.924 269.468,172.443 269.200,172.127 269.200 C 171.791 269.200,171.672 269.006,171.842 268.732 C 172.035 268.419,171.915 268.347,171.478 268.515 C 171.119 268.652,170.712 268.582,170.574 268.358 C 170.436 268.134,169.935 267.774,169.461 267.558 C 167.635 266.726,166.816 266.116,167.102 265.801 C 167.266 265.620,167.107 265.577,166.749 265.705 C 166.391 265.833,165.911 265.751,165.682 265.522 C 165.164 265.004,163.625 264.094,162.700 263.760 C 162.315 263.621,162.000 263.337,162.000 263.130 C 162.000 262.922,161.840 262.851,161.645 262.972 C 161.450 263.093,161.068 262.923,160.796 262.596 C 160.524 262.268,160.048 262.000,159.738 262.000 C 159.429 262.000,159.071 261.730,158.945 261.400 C 158.818 261.070,158.401 260.800,158.018 260.800 C 157.636 260.800,156.907 260.440,156.400 260.000 C 155.893 259.560,155.229 259.200,154.926 259.200 C 154.623 259.200,154.271 258.930,154.145 258.600 C 154.018 258.270,153.651 258.000,153.328 258.000 C 152.527 258.000,149.200 256.016,149.200 255.538 C 149.200 255.326,149.057 255.241,148.882 255.350 C 148.496 255.588,144.704 253.430,144.995 253.138 C 145.108 253.026,144.948 252.933,144.640 252.933 C 143.952 252.933,135.754 248.176,134.468 247.030 C 133.955 246.574,133.505 246.262,133.468 246.337 C 133.430 246.412,132.911 246.251,132.313 245.978 C 131.714 245.706,131.319 245.331,131.433 245.146 C 131.548 244.961,131.396 244.903,131.096 245.019 C 130.795 245.134,130.222 244.866,129.821 244.424 C 129.421 243.981,128.958 243.703,128.792 243.805 C 128.626 243.907,128.268 243.723,127.996 243.396 C 127.724 243.068,127.265 242.800,126.975 242.800 C 126.685 242.800,126.319 242.592,126.162 242.338 C 125.968 242.025,126.057 241.985,126.438 242.215 C 126.903 242.495,126.912 242.445,126.493 241.927 C 126.089 241.429,125.995 232.755,126.032 199.661 C 126.080 156.950,126.039 155.694,124.648 157.086 C 124.511 157.222,124.400 157.123,124.400 156.867 C 124.400 156.610,124.130 156.400,123.800 156.400 C 123.470 156.400,123.200 156.209,123.200 155.976 C 123.200 155.743,123.020 155.664,122.800 155.800 C 122.580 155.936,122.400 155.857,122.400 155.624 C 122.400 155.391,122.130 155.200,121.800 155.200 C 121.470 155.200,121.200 155.009,121.200 154.776 C 121.200 154.543,121.020 154.464,120.800 154.600 C 120.580 154.736,120.400 154.657,120.400 154.424 C 120.400 154.191,120.130 154.000,119.800 154.000 C 119.470 154.000,119.200 153.809,119.200 153.576 C 119.200 153.343,119.020 153.264,118.800 153.400 C 118.580 153.536,118.400 153.457,118.400 153.224 C 118.400 152.991,118.130 152.800,117.800 152.800 C 117.470 152.800,117.200 152.609,117.200 152.376 C 117.200 152.143,117.020 152.064,116.800 152.200 C 116.580 152.336,116.400 152.257,116.400 152.024 C 116.400 151.791,116.130 151.600,115.800 151.600 C 115.470 151.600,115.200 151.423,115.200 151.208 C 115.200 150.992,114.750 150.702,114.200 150.564 C 113.650 150.426,113.200 150.165,113.200 149.984 C 113.200 149.802,112.821 149.534,112.357 149.386 C 111.894 149.239,111.219 148.866,110.857 148.556 C 110.496 148.247,110.020 147.955,109.800 147.907 C 109.580 147.860,109.130 147.590,108.800 147.307 C 108.470 147.025,108.062 146.799,107.892 146.805 C 107.723 146.811,107.201 146.459,106.732 146.022 C 106.263 145.585,105.726 145.322,105.539 145.437 C 105.353 145.553,105.200 145.457,105.200 145.224 C 105.200 144.991,104.930 144.800,104.600 144.800 C 104.270 144.800,104.000 144.609,104.000 144.376 C 104.000 144.143,103.820 144.064,103.600 144.200 C 103.380 144.336,103.200 144.257,103.200 144.024 C 103.200 143.791,102.930 143.600,102.600 143.600 C 102.270 143.600,102.000 143.409,102.000 143.176 C 102.000 142.943,101.820 142.864,101.600 143.000 C 101.380 143.136,101.200 143.057,101.200 142.824 C 101.200 142.591,100.930 142.400,100.600 142.400 C 100.270 142.400,100.000 142.209,100.000 141.976 C 100.000 141.743,99.820 141.664,99.600 141.800 C 99.380 141.936,99.200 141.857,99.200 141.624 C 99.200 141.391,98.930 141.200,98.600 141.200 C 98.270 141.200,98.000 141.009,98.000 140.776 C 98.000 140.543,97.820 140.464,97.600 140.600 C 97.380 140.736,97.200 140.657,97.200 140.424 C 97.200 140.191,96.930 140.000,96.600 140.000 C 96.270 140.000,96.000 139.809,96.000 139.576 C 96.000 139.343,95.820 139.264,95.600 139.400 C 95.380 139.536,95.200 139.457,95.200 139.224 C 95.200 138.991,94.930 138.800,94.600 138.800 C 94.270 138.800,94.000 138.609,94.000 138.376 C 94.000 138.143,93.820 138.064,93.600 138.200 C 93.380 138.336,93.200 138.257,93.200 138.024 C 93.200 137.791,92.930 137.600,92.600 137.600 C 92.270 137.600,92.000 137.423,92.000 137.208 C 92.000 136.992,91.550 136.702,91.000 136.564 C 90.450 136.426,90.000 136.165,90.000 135.984 C 90.000 135.802,89.621 135.534,89.157 135.386 C 88.694 135.239,88.019 134.866,87.657 134.556 C 87.296 134.247,86.820 133.955,86.600 133.907 C 86.380 133.860,85.879 133.546,85.487 133.210 C 85.095 132.875,84.731 132.690,84.678 132.800 C 84.625 132.910,84.153 132.601,83.630 132.114 C 83.107 131.626,82.526 131.322,82.339 131.437 C 82.153 131.553,82.000 131.457,82.000 131.224 C 82.000 130.991,81.730 130.800,81.400 130.800 C 81.070 130.800,80.800 130.609,80.800 130.376 C 80.800 130.143,80.620 130.064,80.400 130.200 C 80.180 130.336,80.000 130.257,80.000 130.024 C 80.000 129.791,79.730 129.600,79.400 129.600 C 79.070 129.600,78.800 129.409,78.800 129.176 C 78.800 128.943,78.620 128.864,78.400 129.000 C 78.180 129.136,78.000 129.057,78.000 128.824 C 78.000 128.591,77.730 128.400,77.400 128.400 C 77.070 128.400,76.800 128.209,76.800 127.976 C 76.800 127.743,76.620 127.664,76.400 127.800 C 76.180 127.936,76.000 127.857,76.000 127.624 C 76.000 127.391,75.730 127.200,75.400 127.200 C 75.070 127.200,74.800 127.009,74.800 126.776 C 74.800 126.543,74.620 126.464,74.400 126.600 C 74.180 126.736,74.000 126.657,74.000 126.424 C 74.000 126.191,73.730 126.000,73.400 126.000 C 73.070 126.000,72.800 125.809,72.800 125.576 C 72.800 125.343,72.620 125.264,72.400 125.400 C 72.180 125.536,72.000 125.457,72.000 125.224 C 72.000 124.991,71.730 124.800,71.400 124.800 C 71.070 124.800,70.800 124.609,70.800 124.376 C 70.800 124.143,70.620 124.064,70.400 124.200 C 70.180 124.336,70.000 124.257,70.000 124.024 C 70.000 123.791,69.730 123.600,69.400 123.600 C 69.070 123.600,68.800 123.432,68.800 123.227 C 68.800 123.022,68.421 122.734,67.957 122.586 C 67.494 122.439,66.768 122.022,66.344 121.659 C 65.921 121.297,65.535 121.082,65.487 121.182 C 65.439 121.282,64.989 121.012,64.487 120.582 C 63.985 120.152,63.445 119.805,63.287 119.810 C 63.129 119.816,62.730 119.590,62.400 119.307 C 62.070 119.025,61.710 118.832,61.600 118.878 C 61.490 118.925,61.040 118.655,60.600 118.278 C 60.160 117.902,59.662 117.599,59.492 117.605 C 59.323 117.611,58.801 117.259,58.332 116.822 C 57.863 116.385,57.326 116.122,57.139 116.237 C 56.953 116.353,56.800 116.257,56.800 116.024 C 56.800 115.791,56.530 115.600,56.200 115.600 C 55.870 115.600,55.600 115.409,55.600 115.176 C 55.600 114.943,55.420 114.864,55.200 115.000 C 54.980 115.136,54.800 115.057,54.800 114.824 C 54.800 114.591,54.530 114.400,54.200 114.400 C 53.870 114.400,53.600 114.209,53.600 113.976 C 53.600 113.743,53.420 113.664,53.200 113.800 C 52.980 113.936,52.800 113.857,52.800 113.624 C 52.800 113.391,52.530 113.200,52.200 113.200 C 51.870 113.200,51.600 113.009,51.600 112.776 C 51.600 112.543,51.420 112.464,51.200 112.600 C 50.980 112.736,50.800 112.657,50.800 112.424 C 50.800 112.191,50.530 112.000,50.200 112.000 C 49.870 112.000,49.600 111.809,49.600 111.576 C 49.600 111.343,49.420 111.264,49.200 111.400 C 48.980 111.536,48.800 111.457,48.800 111.224 C 48.800 110.991,48.530 110.800,48.200 110.800 C 47.870 110.800,47.600 110.609,47.600 110.376 C 47.600 110.143,47.420 110.064,47.200 110.200 C 46.980 110.336,46.800 110.257,46.800 110.024 C 46.800 109.791,46.530 109.600,46.200 109.600 C 45.870 109.600,45.600 109.409,45.600 109.176 C 45.600 108.943,45.439 108.852,45.242 108.974 C 45.045 109.096,44.771 108.901,44.632 108.540 C 44.494 108.180,44.280 107.986,44.157 108.110 C 44.033 108.233,43.582 108.034,43.153 107.667 C 42.725 107.300,42.335 107.082,42.287 107.182 C 42.239 107.282,41.840 107.055,41.400 106.678 C 40.960 106.302,40.510 106.032,40.400 106.078 C 40.290 106.125,39.789 105.812,39.287 105.382 C 38.785 104.952,38.335 104.682,38.287 104.782 C 38.239 104.882,37.789 104.612,37.287 104.182 C 36.785 103.752,36.335 103.482,36.287 103.582 C 36.239 103.682,35.840 103.455,35.400 103.078 C 34.960 102.702,34.484 102.440,34.342 102.497 C 34.200 102.554,33.696 102.249,33.223 101.821 C 31.785 100.519,31.354 100.716,31.250 102.722 " stroke="none" fill="#33d3b3" fill-rule="evenodd"></path><path id="path1" d="M193.600 3.559 C 187.346 7.353,176.536 13.804,156.000 25.995 C 148.850 30.240,140.840 35.015,138.200 36.607 C 135.560 38.199,127.550 42.970,120.400 47.210 C 113.250 51.450,105.240 56.217,102.600 57.804 C 99.960 59.391,93.524 63.233,88.298 66.342 C 83.072 69.450,74.612 74.488,69.498 77.536 C 64.384 80.584,54.350 86.550,47.200 90.794 C 40.050 95.038,33.615 98.860,32.900 99.288 C 32.185 99.715,31.601 100.186,31.602 100.333 C 31.603 100.480,52.860 113.431,78.839 129.113 L 126.075 157.626 129.537 155.680 C 131.442 154.609,136.060 151.966,139.800 149.806 C 143.540 147.646,149.480 144.222,153.000 142.196 C 164.578 135.534,169.696 132.585,178.000 127.791 C 182.510 125.188,189.260 121.306,193.000 119.164 L 199.800 115.271 199.901 57.636 C 199.957 25.936,199.867 0.009,199.701 0.020 C 199.536 0.031,196.790 1.624,193.600 3.559 " stroke="none" fill="#1cbc9c" fill-rule="evenodd"></path><path id="path2" d="M287.000 66.059 C 280.400 69.818,272.750 74.162,270.000 75.712 C 267.250 77.262,262.930 79.697,260.400 81.123 C 257.870 82.549,254.810 84.262,253.600 84.929 C 252.390 85.596,250.080 86.920,248.467 87.871 C 246.854 88.822,245.473 89.600,245.398 89.600 C 245.324 89.600,243.674 90.519,241.732 91.642 C 239.789 92.764,237.210 94.231,236.000 94.901 C 234.790 95.571,227.950 99.445,220.800 103.509 C 213.650 107.574,206.045 111.883,203.900 113.086 C 199.160 115.744,199.144 115.326,204.100 118.173 C 208.523 120.714,208.745 120.843,220.400 127.699 C 224.690 130.222,233.690 135.479,240.400 139.381 C 247.110 143.282,253.770 147.156,255.200 147.988 C 256.630 148.821,261.355 151.602,265.700 154.170 L 273.600 158.838 273.616 200.519 L 273.631 242.200 321.116 271.092 L 368.600 299.984 368.826 298.292 C 368.950 297.361,369.109 282.020,369.180 264.200 C 369.250 246.380,369.350 230.720,369.401 229.400 C 369.452 228.080,369.630 199.010,369.797 164.799 L 370.099 102.599 368.150 101.343 C 367.077 100.653,364.220 98.872,361.800 97.386 C 355.791 93.696,346.465 87.938,341.416 84.800 C 339.115 83.370,333.587 79.950,329.131 77.200 C 324.675 74.450,319.722 71.390,318.125 70.400 C 304.481 61.945,299.913 59.202,299.491 59.212 C 299.221 59.218,293.600 62.300,287.000 66.059 " stroke="none" fill="#1cb3fb" fill-rule="evenodd"></path><path id="path3" d="M267.800 245.771 C 264.720 247.583,259.140 250.829,255.400 252.983 C 247.324 257.634,237.458 263.314,230.000 267.605 C 221.668 272.400,212.804 277.511,206.100 281.387 L 200.000 284.914 200.000 342.457 C 200.000 374.106,200.087 400.000,200.193 400.000 C 200.300 400.000,204.125 397.779,208.693 395.064 C 219.781 388.476,234.793 379.592,244.600 373.815 C 249.000 371.222,253.410 368.607,254.400 368.003 C 255.390 367.398,259.800 364.788,264.200 362.203 C 268.600 359.617,273.010 357.007,274.000 356.403 C 274.990 355.798,279.400 353.182,283.800 350.589 C 297.560 342.479,300.517 340.729,303.400 338.990 C 304.940 338.060,309.350 335.452,313.200 333.194 C 317.050 330.935,321.460 328.326,323.000 327.396 C 324.540 326.466,330.210 323.100,335.600 319.916 C 345.066 314.325,356.789 307.396,364.917 302.589 C 367.071 301.315,368.691 300.143,368.517 299.985 C 367.783 299.317,274.051 242.403,273.741 242.437 C 273.553 242.458,270.880 243.958,267.800 245.771 " stroke="none" fill="#349cdc" fill-rule="evenodd"></path><path id="path4" d="M30.914 107.400 C 30.917 108.500,30.995 108.903,31.087 108.295 C 31.179 107.686,31.177 106.786,31.082 106.295 C 30.987 105.803,30.911 106.300,30.914 107.400 M30.942 113.800 C 30.941 115.780,31.008 116.640,31.092 115.712 C 31.176 114.784,31.177 113.164,31.095 112.112 C 31.012 111.060,30.943 111.820,30.942 113.800 M30.960 124.600 C 30.961 127.900,31.022 129.197,31.098 127.482 C 31.173 125.767,31.172 123.067,31.097 121.482 C 31.021 119.897,30.959 121.300,30.960 124.600 M30.934 134.400 C 30.934 136.050,31.005 136.725,31.091 135.900 C 31.178 135.075,31.178 133.725,31.091 132.900 C 31.005 132.075,30.934 132.750,30.934 134.400 M30.948 142.400 C 30.948 144.710,31.014 145.655,31.095 144.500 C 31.176 143.345,31.176 141.455,31.095 140.300 C 31.014 139.145,30.948 140.090,30.948 142.400 M30.901 148.600 C 30.905 149.480,30.987 149.793,31.083 149.295 C 31.179 148.798,31.175 148.078,31.075 147.695 C 30.975 147.313,30.896 147.720,30.901 148.600 M126.172 166.800 C 126.172 171.970,126.229 174.085,126.299 171.500 C 126.368 168.915,126.368 164.685,126.299 162.100 C 126.229 159.515,126.172 161.630,126.172 166.800 M30.944 162.800 C 30.944 164.890,31.012 165.745,31.094 164.700 C 31.176 163.655,31.176 161.945,31.094 160.900 C 31.012 159.855,30.944 160.710,30.944 162.800 M30.514 173.000 C 30.517 174.100,30.595 174.503,30.687 173.895 C 30.779 173.286,30.777 172.386,30.682 171.895 C 30.587 171.403,30.511 171.900,30.514 173.000 M30.542 179.400 C 30.541 181.380,30.608 182.240,30.692 181.312 C 30.776 180.384,30.777 178.764,30.695 177.712 C 30.612 176.660,30.543 177.420,30.542 179.400 M126.190 212.000 C 126.190 228.390,126.239 235.095,126.300 226.900 C 126.360 218.705,126.360 205.295,126.300 197.100 C 126.239 188.905,126.190 195.610,126.190 212.000 M30.561 190.000 C 30.561 193.410,30.622 194.805,30.697 193.100 C 30.772 191.395,30.772 188.605,30.697 186.900 C 30.622 185.195,30.561 186.590,30.561 190.000 M30.534 200.000 C 30.534 201.650,30.605 202.325,30.691 201.500 C 30.778 200.675,30.778 199.325,30.691 198.500 C 30.605 197.675,30.534 198.350,30.534 200.000 M30.546 207.800 C 30.547 210.000,30.614 210.849,30.695 209.687 C 30.776 208.524,30.776 206.724,30.693 205.687 C 30.611 204.649,30.545 205.600,30.546 207.800 M30.501 213.800 C 30.505 214.680,30.587 214.993,30.683 214.495 C 30.779 213.998,30.775 213.278,30.675 212.895 C 30.575 212.513,30.496 212.920,30.501 213.800 M30.493 217.200 C 30.493 217.970,30.575 218.285,30.676 217.900 C 30.776 217.515,30.776 216.885,30.676 216.500 C 30.575 216.115,30.493 216.430,30.493 217.200 M30.544 228.400 C 30.544 230.490,30.612 231.345,30.694 230.300 C 30.776 229.255,30.776 227.545,30.694 226.500 C 30.612 225.455,30.544 226.310,30.544 228.400 M30.114 238.600 C 30.117 239.700,30.195 240.103,30.287 239.495 C 30.379 238.886,30.377 237.986,30.282 237.495 C 30.187 237.003,30.111 237.500,30.114 238.600 M30.142 245.000 C 30.141 246.980,30.208 247.840,30.292 246.912 C 30.376 245.984,30.377 244.364,30.295 243.312 C 30.212 242.260,30.143 243.020,30.142 245.000 M126.162 242.338 C 126.319 242.592,126.647 242.800,126.892 242.800 C 127.137 242.800,127.666 243.098,128.069 243.462 C 128.471 243.826,128.800 243.947,128.800 243.730 C 128.800 243.513,128.305 243.088,127.700 242.786 C 127.095 242.485,126.437 242.156,126.238 242.057 C 126.039 241.958,126.005 242.084,126.162 242.338 M129.538 244.103 C 130.184 244.908,133.600 246.873,133.600 246.439 C 133.600 246.272,133.105 245.886,132.500 245.582 C 131.895 245.278,130.860 244.669,130.200 244.230 C 129.271 243.612,129.122 243.583,129.538 244.103 M134.600 247.101 C 135.196 247.675,143.726 252.818,148.500 255.480 C 148.665 255.572,148.800 255.494,148.800 255.307 C 148.800 255.120,147.855 254.469,146.700 253.859 C 145.545 253.250,143.700 252.202,142.600 251.530 C 137.363 248.333,133.876 246.402,134.600 247.101 M30.161 255.600 C 30.161 259.010,30.222 260.405,30.297 258.700 C 30.372 256.995,30.372 254.205,30.297 252.500 C 30.222 250.795,30.161 252.190,30.161 255.600 M149.200 255.775 C 149.200 256.064,152.749 258.000,153.271 257.995 C 153.562 257.993,153.080 257.579,152.200 257.076 C 150.470 256.087,149.200 255.536,149.200 255.775 M156.400 259.982 C 156.400 260.375,157.949 260.984,158.232 260.701 C 158.326 260.607,157.953 260.325,157.402 260.074 C 156.851 259.823,156.400 259.781,156.400 259.982 M30.134 265.600 C 30.134 267.250,30.205 267.925,30.291 267.100 C 30.378 266.275,30.378 264.925,30.291 264.100 C 30.205 263.275,30.134 263.950,30.134 265.600 M163.549 264.125 C 163.851 264.496,164.287 264.800,164.517 264.800 C 164.748 264.800,165.266 265.098,165.669 265.462 C 166.071 265.826,166.400 265.949,166.400 265.736 C 166.400 265.522,165.635 264.921,164.700 264.399 C 163.464 263.710,163.150 263.635,163.549 264.125 M168.349 266.925 C 168.651 267.296,169.087 267.600,169.317 267.600 C 169.548 267.600,170.066 267.898,170.469 268.262 C 170.871 268.626,171.200 268.749,171.200 268.536 C 171.200 268.322,170.435 267.721,169.500 267.199 C 168.264 266.510,167.950 266.435,168.349 266.925 M172.000 269.084 C 172.330 269.205,172.915 269.579,173.300 269.914 C 173.685 270.250,174.000 270.381,174.000 270.206 C 174.000 269.723,172.678 268.823,172.000 268.844 C 171.467 268.861,171.467 268.888,172.000 269.084 M30.146 273.400 C 30.147 275.600,30.214 276.449,30.295 275.287 C 30.376 274.124,30.376 272.324,30.293 271.287 C 30.211 270.249,30.145 271.200,30.146 273.400 M174.953 270.714 C 175.367 271.190,176.087 271.695,176.553 271.837 C 177.019 271.979,177.715 272.371,178.100 272.709 C 178.485 273.047,178.800 273.147,178.800 272.930 C 178.800 272.713,178.305 272.286,177.700 271.982 C 177.095 271.678,176.060 271.073,175.400 270.639 L 174.200 269.849 174.953 270.714 M179.578 273.373 C 180.196 274.118,183.600 276.050,183.600 275.656 C 183.600 275.498,182.583 274.784,181.339 274.070 C 180.096 273.356,179.303 273.042,179.578 273.373 M185.200 276.654 C 185.201 277.094,189.184 279.349,189.465 279.068 C 189.580 278.953,189.073 278.549,188.337 278.170 C 187.602 277.791,186.595 277.217,186.100 276.895 C 185.605 276.572,185.200 276.464,185.200 276.654 M30.101 279.400 C 30.105 280.280,30.187 280.593,30.283 280.095 C 30.379 279.598,30.375 278.878,30.275 278.495 C 30.175 278.113,30.096 278.520,30.101 279.400 M190.033 279.741 C 190.801 280.393,194.000 282.003,194.000 281.737 C 194.000 281.380,190.860 279.597,190.233 279.599 C 190.032 279.600,189.942 279.664,190.033 279.741 M30.093 282.800 C 30.093 283.570,30.175 283.885,30.276 283.500 C 30.376 283.115,30.376 282.485,30.276 282.100 C 30.175 281.715,30.093 282.030,30.093 282.800 M194.400 282.175 C 194.400 282.464,197.949 284.400,198.471 284.395 C 198.762 284.393,198.280 283.979,197.400 283.476 C 195.670 282.487,194.400 281.936,194.400 282.175 M198.860 285.466 C 198.219 286.161,198.399 286.495,199.160 286.025 C 199.456 285.842,199.631 285.509,199.549 285.286 C 199.463 285.050,199.172 285.126,198.860 285.466 M195.589 287.497 C 194.423 288.318,192.809 289.223,190.600 290.294 C 189.720 290.721,188.730 291.399,188.400 291.801 C 187.820 292.507,188.646 292.097,191.815 290.107 C 192.247 289.836,193.545 289.132,194.700 288.542 C 195.855 287.953,196.800 287.319,196.800 287.135 C 196.800 286.676,196.720 286.700,195.589 287.497 M30.144 294.000 C 30.144 296.090,30.212 296.945,30.294 295.900 C 30.376 294.855,30.376 293.145,30.294 292.100 C 30.212 291.055,30.144 291.910,30.144 294.000 M185.200 293.385 C 183.990 294.130,182.370 295.081,181.600 295.500 C 180.830 295.919,179.066 296.874,177.679 297.624 C 176.293 298.373,175.316 299.039,175.508 299.103 C 175.701 299.167,177.555 298.234,179.629 297.029 C 181.703 295.824,184.345 294.350,185.500 293.754 C 186.655 293.158,187.600 292.519,187.600 292.335 C 187.600 291.890,187.704 291.844,185.200 293.385 M30.000 298.075 C 30.849 298.857,32.800 299.984,32.800 299.691 C 32.800 299.492,32.305 299.080,31.700 298.777 C 30.271 298.061,29.752 297.846,30.000 298.075 M174.155 299.605 C 173.933 299.827,173.132 300.337,172.375 300.738 C 167.456 303.345,165.999 304.200,166.302 304.301 C 166.727 304.442,173.495 300.677,174.348 299.823 C 174.691 299.480,174.879 299.200,174.766 299.200 C 174.653 299.200,174.378 299.382,174.155 299.605 M36.000 301.961 C 36.550 302.413,37.540 303.060,38.200 303.399 C 38.860 303.738,39.805 304.304,40.300 304.657 C 40.795 305.009,41.197 305.141,41.192 304.949 C 41.188 304.757,39.973 303.880,38.492 303.000 C 35.339 301.126,34.614 300.824,36.000 301.961 M42.200 305.842 C 43.575 306.902,44.400 307.266,44.400 306.814 C 44.400 306.586,44.152 306.400,43.849 306.400 C 43.546 306.400,43.074 306.130,42.800 305.800 C 42.526 305.470,42.099 305.206,41.851 305.213 C 41.603 305.220,41.760 305.503,42.200 305.842 M162.200 306.401 C 161.540 306.839,160.055 307.677,158.900 308.264 C 157.745 308.851,156.800 309.489,156.800 309.682 C 156.800 309.876,157.575 309.580,158.522 309.025 C 159.469 308.470,161.224 307.475,162.422 306.815 C 163.620 306.155,164.330 305.612,164.000 305.610 C 163.670 305.607,162.860 305.963,162.200 306.401 M44.800 307.366 C 44.800 307.457,45.745 308.110,46.900 308.817 C 48.473 309.781,48.809 309.890,48.238 309.252 C 47.819 308.783,47.256 308.400,46.987 308.400 C 46.718 308.400,46.274 308.130,46.000 307.800 C 45.541 307.246,44.800 306.978,44.800 307.366 M49.200 309.977 C 49.200 310.420,50.770 311.364,51.047 311.087 C 51.145 310.989,50.769 310.610,50.212 310.245 C 49.656 309.880,49.200 309.759,49.200 309.977 M153.000 311.620 C 152.340 312.068,151.260 312.706,150.600 313.039 C 147.991 314.355,147.600 314.603,147.600 314.941 C 147.600 315.134,148.005 315.031,148.500 314.712 C 148.995 314.393,150.615 313.457,152.100 312.632 C 153.585 311.806,154.800 311.057,154.800 310.966 C 154.800 310.605,154.144 310.844,153.000 311.620 M52.600 312.266 C 53.260 312.615,54.123 313.183,54.517 313.528 C 55.094 314.032,55.191 314.042,55.011 313.578 C 54.764 312.939,52.603 311.591,51.868 311.616 C 51.610 311.625,51.940 311.917,52.600 312.266 M57.944 315.613 C 58.464 316.046,59.094 316.396,59.344 316.391 C 59.595 316.386,59.350 316.030,58.800 315.600 C 57.493 314.577,56.715 314.590,57.944 315.613 M143.700 316.846 C 141.908 317.994,142.070 318.159,144.000 317.153 C 144.880 316.695,145.600 316.247,145.600 316.160 C 145.600 315.813,144.941 316.051,143.700 316.846 M60.000 316.788 C 60.000 317.015,60.197 317.200,60.438 317.200 C 60.679 317.200,61.399 317.572,62.038 318.027 C 62.677 318.482,63.199 318.707,63.197 318.527 C 63.195 318.347,62.475 317.790,61.597 317.288 C 60.719 316.786,60.000 316.561,60.000 316.788 M140.354 318.745 C 139.829 319.155,139.011 319.612,138.536 319.760 C 138.061 319.909,137.431 320.331,137.136 320.699 C 136.634 321.323,140.920 319.161,141.780 318.356 C 142.515 317.667,141.315 317.995,140.354 318.745 M67.600 321.600 C 68.150 322.030,68.766 322.386,68.969 322.391 C 69.171 322.396,69.666 322.698,70.069 323.062 C 70.471 323.426,70.800 323.537,70.800 323.308 C 70.800 323.079,70.178 322.596,69.417 322.235 C 68.656 321.874,67.926 321.403,67.793 321.189 C 67.661 320.975,67.338 320.804,67.076 320.809 C 66.814 320.814,67.050 321.170,67.600 321.600 M134.483 322.057 C 133.759 322.520,133.243 322.976,133.336 323.070 C 133.430 323.163,134.182 322.781,135.009 322.220 C 136.812 320.996,136.359 320.855,134.483 322.057 M71.200 323.491 C 71.200 323.703,72.536 324.693,74.169 325.691 C 75.802 326.689,77.058 327.295,76.959 327.038 C 76.861 326.781,76.110 326.222,75.290 325.796 C 74.471 325.370,73.215 324.590,72.500 324.063 C 71.785 323.536,71.200 323.279,71.200 323.491 M131.612 323.584 C 131.288 323.789,131.121 324.054,131.241 324.174 C 131.360 324.294,131.805 324.129,132.229 323.809 C 133.073 323.171,132.560 322.985,131.612 323.584 M128.389 325.497 C 127.078 326.420,125.337 327.387,123.500 328.213 C 122.675 328.583,122.000 329.053,122.000 329.255 C 122.000 329.458,122.765 329.174,123.700 328.625 C 124.635 328.076,126.345 327.141,127.500 326.548 C 128.655 325.955,129.600 325.319,129.600 325.135 C 129.600 324.676,129.520 324.700,128.389 325.497 M78.400 328.180 C 78.400 328.477,81.244 330.090,81.434 329.900 C 81.539 329.795,81.214 329.446,80.712 329.124 C 79.691 328.471,78.400 327.943,78.400 328.180 M82.000 330.388 C 82.000 330.615,82.197 330.800,82.438 330.800 C 82.679 330.800,83.399 331.172,84.038 331.627 C 84.677 332.082,85.199 332.307,85.197 332.127 C 85.195 331.947,84.475 331.390,83.597 330.888 C 82.719 330.386,82.000 330.161,82.000 330.388 M118.000 331.388 C 116.790 332.134,115.050 333.126,114.132 333.592 C 113.215 334.059,112.246 334.704,111.978 335.027 C 111.710 335.349,112.551 334.990,113.845 334.228 C 115.140 333.466,117.145 332.354,118.300 331.756 C 119.455 331.159,120.400 330.519,120.400 330.335 C 120.400 329.889,120.504 329.844,118.000 331.388 M88.400 334.352 C 88.950 334.799,89.850 335.389,90.400 335.665 C 90.950 335.940,91.715 336.426,92.100 336.745 C 92.485 337.063,92.800 337.158,92.800 336.955 C 92.800 336.753,91.768 335.960,90.506 335.193 C 87.781 333.538,87.025 333.236,88.400 334.352 M108.800 336.588 C 107.590 337.334,105.850 338.326,104.932 338.792 C 104.015 339.259,103.046 339.904,102.778 340.227 C 102.510 340.549,103.351 340.190,104.645 339.428 C 105.940 338.666,107.945 337.554,109.100 336.956 C 110.255 336.359,111.200 335.719,111.200 335.535 C 111.200 335.089,111.304 335.044,108.800 336.588 M94.600 338.242 C 95.975 339.302,96.800 339.666,96.800 339.214 C 96.800 338.986,96.552 338.800,96.249 338.800 C 95.946 338.800,95.474 338.530,95.200 338.200 C 94.926 337.870,94.499 337.606,94.251 337.613 C 94.003 337.620,94.160 337.903,94.600 338.242 M97.200 339.754 C 97.200 339.839,97.695 340.227,98.300 340.616 L 99.400 341.324 98.638 340.462 C 97.964 339.699,97.200 339.323,97.200 339.754 M100.971 340.991 C 100.547 341.312,100.380 341.578,100.600 341.581 C 101.194 341.591,102.210 340.877,101.959 340.626 C 101.840 340.506,101.395 340.671,100.971 340.991 " stroke="none" fill="#34dabc" fill-rule="evenodd"></path></g></svg>